<svg xmlns="http://www.w3.org/2000/svg" width="870" height="200" fill="none" viewBox="0 0 870 200">
  <path fill="#2C6FB6" d="M511.6 2.7c-.3 1.6-.8 4.5-1.2 6.5l-.6 3.8h21.1c23.8 0 20.9 1.1 23-8.8l.9-4.2h-42.6l-.6 2.7z"/>
  <path fill="#201C1D" d="M557.2 6.2c-.6 3.5-2.7 14.4-4.7 24.3-1.9 9.9-3.5 18.1-3.5 18.2 0 .2 2.9.3 6.4.3h6.3l1.7-9.3c2.2-11.5 3.4-14.7 6-15.6 6-2.3 6.9 1.5 3.7 16.2l-1.9 8.7h6.4c5.8 0 6.4-.2 6.9-2.3 1.9-8.2 4.5-22.4 4.5-24.7 0-1.6-1.2-4.2-2.7-6-2.5-3.1-2.9-3.2-8.4-2.8-3.8.3-6.5 1.1-7.9 2.3-2.4 2.2-2.4 2.6-.5-7.2.8-4.3 1.5-7.9 1.5-8.1 0-.1-2.9-.2-6.4-.2h-6.3l-1.1 6.2zM604.5 14.6c-7.9 4.1-12.3 12.9-11 21.8 1.5 10 7.1 14.1 18.6 13.4 5.4-.3 7.3-.9 10.4-3.2 4.8-3.7 7.9-10.5 7.9-17.6.1-7.5-1.8-11.7-6.5-14.1-4.8-2.4-15.1-2.6-19.4-.3zM616 24c5.8 5.8-2.2 20.8-8.1 15.4-3.1-2.8-2.2-10.7 1.7-14.9 2.8-3 3.8-3.1 6.4-.5zM640.1 15.2c-.5 1.3-1.8 7.7-3.1 14.3-1.2 6.6-2.6 13.5-3.1 15.4-.5 1.9-.7 3.6-.6 3.7.5.5 11.7.7 12.2.3.3-.3 1.4-5.2 2.6-11 1.2-5.7 2.5-11.1 3-12 1.2-2.2 4.4-3 6.5-1.4 1.6 1.1 1.6 1.9-.4 12.1-1.2 6-2.2 11.3-2.2 11.7 0 .4 2.8.7 6.2.5l6.3-.3 1.7-8.5c2.7-13.2 3.6-15.7 5.9-16.3 5.4-1.4 6 2 3 16.5l-1.8 8.6 5.9.4c3.3.2 6.2 0 6.4-.4 1.3-2.1 5.4-25.8 4.9-28.5-1.3-7.3-12.1-10-18.4-4.7l-3.1 2.6-2.1-2.6c-1.7-2.2-2.9-2.6-6.8-2.6-3.3 0-5.6.6-7.4 2-1.4 1.1-2.8 2-3.1 2-.3 0-.6-.9-.6-2 0-1.8-.7-2-5.5-2s-5.7.3-6.4 2.2zM708.4 14.6c-1.7.8-4.1 3.3-5.3 5.4l-2.2 4h6.5c3.9 0 6.6-.4 6.6-1 0-1.8 4.9-3.1 7.1-2 2.4 1.3 2.5 4.6.2 5.8-1 .5-4.8 1.2-8.5 1.5-10.7 1-15.8 4.7-15.8 11.5 0 3.9 2.3 8.7 4.5 9.6 3 1.1 11 .6 13.9-.9 1.8-1 3.2-1.2 3.5-.6.4.5 3.1 1.1 6.1 1.3l5.5.3 1.1-6c3.6-20.3 3.8-21.6 2.8-24.2-1.4-4.2-6.5-6.3-15.4-6.3-4.7 0-8.7.6-10.6 1.6zM721 34.4c0 .1-.5 1.8-1.1 3.5-1.9 5.4-9.9 6.7-9.9 1.7 0-3.6 1.6-4.5 9.8-5.5.6 0 1.2.1 1.2.3zM748 14.8c-6.4 3.2-8.8 12.4-4.4 17.3.9 1 4.3 2.4 7.5 3 6.6 1.3 8.9 3 6.9 5.4-1.9 2.3-6.7 1.9-7.5-.5-.5-1.7-1.5-2-6.6-2-6.4 0-6.6.3-4.4 5.6 1.8 4.4 6.3 6.4 14.5 6.4 11.2 0 17-4.5 17-13 0-3.6-.5-5.1-2.2-6.7-2.6-2.3-7.9-4.3-11.5-4.3-2.9 0-4.1-2.6-2-4.7 1.9-1.9 6.7-1 6.7 1.2 0 1.1 1.3 1.5 5.5 1.5 4.9 0 5.5-.2 5.5-2.1 0-3.1-1.7-5.7-5-7.4-4.1-2.1-15.5-2-20 .3z"/>
  <path fill="#2C6FB6" d="M509.5 37.5c5.3-8.8 10.4-17 11.1-18.3 1.3-2 2.2-2.2 10.4-2.2h8.9l-3 6.7c-1.7 3.8-4.8 10.6-6.9 15.3-17.7 40-43.6 84.9-64.4 112-16.9 21.9-36.6 41-55.1 46.5l-9 2-12-1-11.5-2-8.2-4.1c-12.1-8.9-21.2-25.3-26-46.9-3-13.5-2.8-33.8.5-46.6 2.6-9.8 6.8-19.4 10.6-23.9l2.1-2.5 2 2.4c2.7 3.1 4.6 10.2 6.5 23.6 1.9 13.1 5.5 26.6 9.3 34.2 3.5 7.3 10.6 15.1 15.7 17.4 7.7 3.5 18.4 2 29.3-4.2 6.2-3.6 20.9-15.6 26.2-21.5 23-25.4 41.1-50.2 63.5-86.9z"/>
  <path fill="#201C1D" d="M221.5 83.2c-1.2 3.1-27.5 89.3-27.5 89.9 0 1 88.9-.1 95.6-1.1 8.6-1.3 20-5 24.9-8 11.5-7.1 15.8-21.7 9.1-30.5-2.7-3.5-11-8.5-14.3-8.5-2.7 0-.3-1.5 4.6-2.9 12.9-3.7 19.7-13.7 17-24.6-1.6-6.3-6.9-10.7-15.7-13.1-5.9-1.6-11.9-1.9-50-2.2-35.1-.3-43.3-.1-43.7 1zm67.1 23.2c3.4 4.7.1 9.5-7.2 10.7-8.3 1.3-29.4 1.1-29.4-.4 0-1 2.2-9 3.4-12.2.2-.6 6-.8 16.1-.5 14 .4 15.8.7 17.1 2.4zm-8.4 29.4c1.5.6 3.4 2.3 4.4 3.7 1.4 2.1 1.4 3 .4 5.4-2.2 5.4-6.4 6.5-25.9 6.9l-17.4.4.6-3.3c.9-4.7 3.1-12.2 3.9-13.4.9-1.4 30.6-1.2 34 .3zM651 105.5l7-23.5h115.5l-1 23.5L690 150h148v24l-211.5-.5L633 150l74.351-44.5H651z"/>
  <path fill="#2C6FB6" d="M517 105l7-23h134l-7 23.5h-55l-21 68h-41.5l20-68-36.5-.5z"/>
  <path fill="#2C6FB6" stroke="#2C6FB6" stroke-linejoin="round" stroke-width="3" d="M838 140v44l30-22-30-22z"/>
  <path fill="#201C1D" d="M11.266.655C11.266 1.718.582 59.89.089 61.527-.321 62.837.418 63 8.225 63h8.547l1.397-7.61c.74-4.09 1.808-9.49 2.301-11.863l.904-4.254h21.778l.986-5.564c.493-3.027 1.15-6.3 1.397-7.364.411-1.8.411-1.8-10.355-1.8H24.415v-2.29c0-1.228.246-3.028.493-4.091.493-1.8.74-1.8 13.56-1.8 9.861 0 13.067-.246 13.067-1.064.082-.49.575-3.927 1.232-7.527C53.425 4.173 54 .982 54 .573 54 .245 44.385 0 32.633 0S11.266.327 11.266.655zM106.92 7.527c-.731 4.173-3.333 18.246-5.61 31.337L97 62.59l7.237.245c3.984.082 7.4.082 7.562 0 .082-.163 1.301-6.218 2.602-13.418 1.383-7.282 3.09-14.4 3.741-15.79 2.195-4.174 8.863-4.582 9.92-.574.244 1.064-.65 8.019-2.033 15.382-1.382 7.446-2.52 13.746-2.52 13.991 0 .328 3.334.573 7.318.573 5.204 0 7.481-.327 7.644-1.064C139.69 58.091 144 31.582 144 28.473c0-7.282-4.879-12.11-12.197-12.11-3.985 0-9.189 2.373-11.059 5.073-.895 1.31-1.301 1.473-1.301.573 0-1.473 3.09-18.573 3.74-20.536C123.59.163 122.939 0 115.946 0h-7.725l-1.301 7.527zM281.874 1.8c-.244 1.064-2.604 14.4-5.371 29.7-2.686 15.3-5.127 28.636-5.372 29.618C270.725 63 270.806 63 278.375 63h7.65l2.523-14.073c2.929-15.873 3.987-18.081 8.626-18.49 2.36-.246 3.174.163 4.232 1.717 1.221 1.882 1.14 2.946-1.22 15.382-1.303 7.364-2.605 13.91-2.849 14.4-.244.819 1.546 1.064 7.325 1.064h7.65l.569-3.11c.245-1.636 1.547-8.508 2.849-15.3 2.767-14.236 2.93-18.572.895-22.5-3.581-6.872-14.405-7.772-20.834-1.8l-2.36 2.21.569-3.682c.244-2.045 1.058-6.627 1.709-10.227.651-3.6 1.221-7.036 1.221-7.61 0-.736-2.034-.981-7.324-.981-6.918 0-7.325.082-7.732 1.8zM377.469 30.846c-3.019 17.018-5.549 31.172-5.467 31.5 0 .409 3.264.654 7.262.654h7.344l.816-4.336c.489-2.291 2.937-15.71 5.385-29.619 2.53-13.99 4.814-26.181 5.059-27.245.408-1.8.327-1.8-7.262-1.8h-7.588l-5.549 30.846zM65.804 17.618c-5.385 1.705-9.564 6.088-10.85 11.445l-.563 2.272h6.912c6.109 0 6.993-.162 7.716-1.623 2.733-5.113 11.735-2.84 10.047 2.435-.804 2.516-3.376 3.409-11.011 4.14-11.253 1.055-16.477 4.139-18.325 10.957-2.572 9.171 1.848 16.395 10.207 16.72 5.626.162 7.234-.163 10.207-2.192 3.617-2.435 4.501-2.516 4.501-.405 0 1.46.563 1.623 7.073 1.623h6.992l.161-3.896c.08-2.11.884-7.467 1.849-11.931 2.491-12.175 2.974-20.535 1.286-23.782-2.17-4.14-6.752-6.087-15.753-6.33-4.18-.163-8.922.08-10.449.567zm10.77 28.084c-1.366 5.843-3.858 8.36-8.117 8.36-2.894 0-4.26-1.3-4.26-4.059 0-3.246 1.045-4.14 6.108-5.276 6.993-1.46 6.832-1.542 6.27.975zM176.285 18.37c-1.489.644-3.64 2.336-4.716 3.625l-2.068 2.417v-6.606h-13.98l-.828 4.189c-.496 2.336-2.233 11.52-3.805 20.382-1.572 8.861-3.143 17.159-3.392 18.367L147 63l7.693-.242 7.694-.241 2.151-11.279c1.158-6.203 2.812-12.567 3.557-14.098 2.151-4.27 5.543-5.961 11.003-5.397 4.136.402 4.467.322 4.88-1.29C186.874 16.84 186.874 17 182.572 17c-1.985 0-4.798.645-6.287 1.37zM196.924 17.966c-6.769 2.26-10.683 7.665-10.683 14.927 0 7.585 2.854 10.49 12.151 12.265 4.893.887 8.237 2.904 8.237 4.76 0 1.533-3.262 4.035-5.301 4.035-2.283 0-5.301-2.582-5.301-4.438 0-.968-1.305-1.21-7.013-1.21H182l.571 3.389c.734 4.437 2.365 7.18 5.627 9.36 6.28 4.195 20.144 3.872 26.586-.727 8.319-5.97 8.808-19.607.898-23.722-1.387-.646-4.649-1.695-7.422-2.34-2.773-.646-5.545-1.614-6.198-2.098-1.631-1.372-1.468-3.55.408-5.164 2.039-1.856 5.79-.807 7.013 1.775.734 1.614 1.387 1.775 7.667 1.775H224l-.489-2.985c-.653-3.712-2.773-6.617-6.28-8.715-3.588-2.017-15.087-2.5-20.307-.887zM242.637 18.28c-5.588 1.723-11.34 7.548-13.64 13.864-2.794 7.384-2.63 16.982.328 22.97 3.534 7.302 10.272 10.583 19.968 9.763 8.299-.739 12.901-3.856 16.598-11.24 3.862-7.71 3.698-7.957-4.355-7.957h-6.902l-1.972 3.036c-1.644 2.543-2.547 3.2-5.013 3.363-4.519.41-5.916-2.215-5.423-9.598.493-6.399 2.383-10.419 5.752-12.388 3.04-1.64 6.409-.328 7.56 2.872l.904 2.46H270v-2.87c-.082-11.732-13.312-18.54-27.363-14.275zM414.056 18.014c-7.335 2.662-13.203 8.953-15.159 16.213-.489 1.775-.897 6.13-.897 9.68 0 13.955 7.498 20.973 21.191 20.005 8.802-.645 13.366-3.066 17.197-8.954 1.304-2.017 2.363-4.033 2.363-4.356 0-.322-3.178-.645-7.009-.645-5.786 0-7.335.322-9.047 1.613-4.645 3.63-11.247.484-10.676-5.082l.244-2.339 13.937.08 14.019.162.489-3.71c1.059-6.776-.815-13.714-4.728-17.989-4.401-4.84-15.241-7.179-21.924-4.678zm9.536 10.244c1.711.807 3.749 4.275 3.749 6.453 0 .404-3.342.726-7.417.726h-7.335l1.793-3.146c2.527-4.436 5.379-5.727 9.21-4.033zM328.495 18.483c0 .242-1.302 7.411-2.93 15.869-3.337 17.721-3.418 22.716-.244 26.018 2.604 2.82 5.208 3.706 10.336 3.625 4.801-.08 6.754-.886 10.254-4.028l2.36-2.094-.488 2.578-.489 2.658h14.486l.814-4.27C363.815 52.8 370 19.048 370 18.484c0-.322-3.337-.402-7.487-.322l-7.487.242-2.279 12.485c-2.523 14.177-4.476 19.01-8.057 19.735-2.686.564-5.29-.563-5.941-2.658-.325-.805.57-7.25 1.953-14.177 1.302-7.008 2.442-13.371 2.442-14.257 0-1.37-.651-1.531-7.325-1.531-3.987 0-7.324.242-7.324.483z"/>
</svg>
