<svg xmlns="http://www.w3.org/2000/svg" width="138" height="92" fill="none" viewBox="0 0 138 92">
  <path fill="#2A6EB5" d="M27.5 1.126c-1.2 3.1-27.5 89.3-27.5 89.9 0 1 88.9-.1 95.6-1.1 8.6-1.3 20-5 24.9-8 11.5-7.1 15.8-21.7 9.1-30.5-2.7-3.5-11-8.5-14.3-8.5-2.7 0-.3-1.5 4.6-2.9 12.9-3.7 19.7-13.7 17-24.6-1.6-6.3-6.9-10.7-15.7-13.1-5.9-1.6-11.9-1.9-50-2.2-35.1-.3-43.3-.1-43.7 1zm67.1 23.2c3.4 4.7.1 9.5-7.2 10.7-8.3 1.3-29.4 1.1-29.4-.4 0-1 2.2-9 3.4-12.2.2-.6 6-.8 16.1-.5 14 .4 15.8.7 17.1 2.4zm-8.4 29.4c1.5.6 3.4 2.3 4.4 3.7 1.4 2.1 1.4 3 .4 5.4-2.2 5.4-6.4 6.5-25.9 6.9l-17.4.4.6-3.3c.9-4.7 3.1-12.2 3.9-13.4.9-1.4 30.6-1.2 34 .3z"/>
</svg>
